<svg width="960" height="540" xmlns="http://www.w3.org/2000/svg" version="1.1">

 <g>
  <title>Layer 1</title>
  <path stroke="#4c4c4c" id="svg_1" fill="#4c4c4c" d="m0,104l87,54l88,-33l87,6l87,32l87,0l88,5l87,6l87,-38l87,-32l88,21l87,22l0,-147l-87,0l-88,0l-87,0l-87,0l-87,0l-88,0l-87,0l-87,0l-87,0l-88,0l-87,0l0,104z"/>
  <path stroke="#7f7f7f" id="svg_2" fill="#666666" d="m0,185l87,10l88,17l87,5l87,-11l87,33l88,-6l87,-11l87,-37l87,-38l88,43l87,0l0,-45l-87,-22l-88,-21l-87,32l-87,38l-87,-6l-88,-5l-87,0l-87,-32l-87,-6l-88,33l-87,-54l0,83z"/>
  <path id="svg_3" fill="#7f7f7f" d="m0,228l87,21l88,38l87,22l87,-6l87,33l88,-38l87,-16l87,-22l87,-5l88,32l87,-32l0,-67l-87,0l-88,-43l-87,38l-87,37l-87,11l-88,6l-87,-33l-87,11l-87,-5l-88,-17l-87,-10l0,45z"/>
  <path id="svg_4" fill="#999999" d="m0,357l87,38l88,-48l87,21l87,60l87,21l88,-86l87,27l87,-38l87,27l88,-11l87,33l0,-148l-87,32l-88,-32l-87,5l-87,22l-87,16l-88,38l-87,-33l-87,6l-87,-22l-88,-38l-87,-21l0,131z"/>
  <path id="svg_5" fill="#b2b2b2" d="m-1,541l87,0l88,0l87,0l87,0l87,0l88,0l87,0l87,0l87,0l88,0l87,0l0,-142l-87,-33l-88,11l-87,-27l-87,38l-87,-27l-88,86l-87,-21l-87,-60l-87,-21l-88,48l-87,-38l0,186z"/>
  <path id="svg_6" d="m226.35558,601.48805l227.65484,0l70.3471,-0.38196l70.34714,0.38196l227.6548,0l-184.1763,0.23606l70.35074,0.38196l-184.17638,-0.23607l-184.17634,0.23607l70.35076,-0.38196l-184.17636,-0.23606z" stroke="#000" fill="#B6C7EA"/>
 </g>
</svg>